<svg width="154" height="34" viewBox="0 0 154 34" fill="none" xmlns="http://www.w3.org/2000/svg">
<g clip-path="url(#clip0_89_317)">
<path d="M23.1484 19.063C24.1444 18.0461 25.1404 17.0273 26.1363 16.0104C26.2815 15.8614 26.4266 15.7145 26.5717 15.5655C26.9454 15.1842 27.0985 14.634 26.9554 14.1157C26.8122 13.5973 26.4147 13.2458 25.9137 13.0749C22.1982 11.8138 18.3893 10.8803 14.6082 9.84952C13.3001 9.49203 11.994 9.1246 10.6939 8.74327C9.58463 8.41755 8.58071 9.496 8.85902 10.5764C9.32619 12.3818 9.79535 14.1872 10.2625 15.9945C11.002 18.8485 11.7416 21.7045 12.4811 24.5586C12.6501 25.21 12.819 25.8634 12.988 26.5149C13.2683 27.5993 14.6996 27.9627 15.4809 27.1723C16.7134 25.923 17.9022 24.634 19.1189 23.3689H17.0096C17.5205 23.9151 18.0334 24.4593 18.5443 25.0054C18.7571 25.2318 18.9698 25.4563 19.1805 25.6827C19.2262 25.7323 19.2739 25.784 19.3177 25.8356C19.3713 25.8992 19.423 25.9647 19.4767 26.0263C19.1447 25.633 19.3534 25.8674 19.425 25.9707C19.6019 26.2289 19.753 26.5049 19.8763 26.7929L19.7252 26.4374C19.8763 26.8009 19.9796 27.1782 20.0373 27.5695L19.9836 27.1743C20.0393 27.5913 20.0393 28.0084 19.9856 28.4255L20.0393 28.0303C19.9796 28.4612 19.8643 28.8763 19.6954 29.2775L19.8465 28.922C19.7311 29.1862 19.596 29.4404 19.4369 29.6827C19.3972 29.7423 19.3554 29.8019 19.3137 29.8595C19.1189 30.1276 19.5324 29.5933 19.3813 29.7721C19.2938 29.8753 19.2043 29.9786 19.1089 30.0759C19.0135 30.1733 18.9141 30.2666 18.8107 30.356C18.7133 30.4394 18.4668 30.6042 18.9002 30.2944C18.8405 30.3361 18.7829 30.3818 18.7213 30.4235C18.4748 30.5923 18.2143 30.7333 17.94 30.8525L18.2958 30.7016C17.9181 30.8604 17.5245 30.9677 17.119 31.0253L17.5146 30.9717C16.6578 31.0829 15.7632 30.9915 14.9123 30.8783L15.3079 30.9319C13.9681 30.7472 12.658 30.3897 11.4116 29.8694L11.7674 30.0203C11.0438 29.7145 10.344 29.357 9.67607 28.9478C9.34806 28.7472 9.028 28.5347 8.71589 28.3083C8.64432 28.2567 8.57474 28.205 8.50318 28.1534C8.45944 28.1216 8.41571 28.0879 8.37197 28.0541C8.23282 27.9508 8.65227 28.2746 8.51709 28.1673C8.36203 28.0442 8.20896 27.921 8.05788 27.7939C7.46348 27.2914 6.90685 26.7472 6.39396 26.1633C6.27866 26.0322 6.16534 25.8972 6.05402 25.7621C5.9904 25.6867 5.93076 25.6092 5.86914 25.5317C5.82938 25.4821 5.72799 25.351 5.88504 25.5536C6.05799 25.778 5.89896 25.5695 5.86118 25.5218C5.63058 25.214 5.41191 24.8982 5.20317 24.5764C4.72606 23.8336 4.31456 23.0491 3.97064 22.2368L4.12172 22.5923C3.59889 21.347 3.24106 20.0402 3.05419 18.7035L3.10787 19.0988C2.921 17.7026 2.921 16.2885 3.10787 14.8942L3.05419 15.2894C3.24106 13.9429 3.60088 12.6281 4.12769 11.3729L3.9766 11.7284C4.27877 11.0154 4.63263 10.3242 5.03817 9.66482C5.23697 9.34108 5.44769 9.02529 5.66835 8.71745C5.726 8.638 5.78365 8.56055 5.84131 8.4811C5.86715 8.44734 5.90293 8.37187 5.93871 8.35201C5.94269 8.35002 5.68823 8.67177 5.8254 8.49898C5.94667 8.34605 6.06793 8.1951 6.19516 8.04615C6.69016 7.46025 7.2289 6.91209 7.8054 6.40563C7.94257 6.28448 8.08372 6.16531 8.22685 6.04813C8.29444 5.99252 8.36203 5.9389 8.42962 5.88527C8.46342 5.85747 8.49721 5.83165 8.53101 5.80583C8.15131 6.1097 8.34414 5.94883 8.43559 5.8813C8.7477 5.64694 9.06776 5.4245 9.39776 5.21397C10.1333 4.74327 10.9086 4.3381 11.7117 3.9965L11.3559 4.14744C12.6103 3.62112 13.9263 3.26164 15.2742 3.07495L14.8785 3.12857C16.2761 2.94188 17.6915 2.93989 19.089 3.12658L18.6934 3.07296C20.0333 3.25767 21.3414 3.61715 22.5898 4.13949L22.234 3.98855C22.9576 4.29441 23.6574 4.65389 24.3253 5.06303C24.6533 5.26363 24.9734 5.47812 25.2875 5.70255C25.3591 5.75419 25.4306 5.80583 25.5002 5.85747C25.5439 5.89123 25.5877 5.925 25.6314 5.95677C25.7706 6.06005 25.3511 5.73632 25.4863 5.84555C25.6413 5.96869 25.7944 6.09183 25.9455 6.21894C26.5399 6.72142 27.0965 7.2676 27.6114 7.8535C27.7267 7.98458 27.84 8.11963 27.9513 8.25469C28.015 8.33016 28.0746 8.40762 28.1362 8.48507C28.176 8.53473 28.2774 8.66581 28.1203 8.46323C27.9474 8.2388 28.1064 8.44734 28.1442 8.49501C28.3748 8.80285 28.5935 9.11864 28.8022 9.44436C29.2793 10.1891 29.6908 10.9756 30.0347 11.7899L29.8836 11.4344C30.4065 12.6837 30.7623 13.9945 30.9452 15.3351L30.8915 14.9399C31.0744 16.3242 31.0704 17.7264 30.8856 19.1107L30.9392 18.7155C30.7504 20.072 30.3866 21.3967 29.8538 22.6579L30.0049 22.3024C29.818 22.7393 29.6113 23.1683 29.3867 23.5874C29.0189 24.2745 29.1918 25.2398 29.9214 25.6251C30.6132 25.9905 31.5694 25.8237 31.9611 25.0908C33.9709 21.3351 34.5355 16.9022 33.4739 12.7711C32.6191 9.44436 30.6967 6.35796 28.0766 4.13354C25.3173 1.78795 21.9477 0.371868 18.3356 0.0600502C14.8587 -0.23985 11.2724 0.610199 8.28251 2.39967C5.29263 4.18915 2.99256 6.73731 1.58907 9.79987C0.0563548 13.1445 -0.386959 16.8545 0.346596 20.4652C1.03045 23.8356 2.83353 26.9995 5.34034 29.351C7.84715 31.7026 11.0915 33.3292 14.5207 33.8038C15.4332 33.929 16.3854 34.0601 17.3078 33.9746C18.2302 33.8892 19.1328 33.6469 19.9498 33.1723C21.3712 32.3441 22.4447 30.9002 22.8304 29.3014C23.216 27.7026 22.9596 25.8197 21.9696 24.4215C21.3414 23.5317 20.5283 22.7651 19.7848 21.9727L19.1208 21.2656C18.5781 20.6877 17.5563 20.6976 17.0116 21.2656C15.797 22.5308 14.6062 23.8197 13.3737 25.069C14.2046 25.2875 15.0356 25.5079 15.8666 25.7264C15.3994 23.921 14.9302 22.1157 14.4631 20.3083C13.7235 17.4543 12.984 14.5983 12.2445 11.7443C12.0755 11.0928 11.9066 10.4394 11.7376 9.78795L9.9027 11.6211C13.9144 12.7989 17.9837 13.7681 21.9915 14.9578C23.0411 15.2696 24.0848 15.6013 25.1225 15.9528L24.4645 13.4622C23.4685 14.4791 22.4725 15.498 21.4766 16.5149C21.3315 16.6638 21.1863 16.8108 21.0412 16.9598C20.4945 17.5178 20.4428 18.5188 21.0412 19.067C21.6396 19.6152 22.568 19.6628 23.1504 19.067L23.1484 19.063Z" fill="url(#paint0_linear_89_317)"/>
</g>
<path d="M53.0186 24.19C51.8406 24.19 50.84 23.9873 50.0166 23.582C49.206 23.164 48.5853 22.575 48.1546 21.815C47.724 21.0423 47.4833 20.1177 47.4326 19.041C47.42 18.5217 47.4136 17.9643 47.4136 17.369C47.4136 16.7737 47.42 16.2037 47.4326 15.659C47.4833 14.595 47.724 13.6767 48.1546 12.904C48.598 12.1313 49.225 11.5423 50.0356 11.137C50.859 10.719 51.8533 10.51 53.0186 10.51C53.88 10.51 54.6526 10.624 55.3366 10.852C56.0206 11.08 56.6033 11.3967 57.0846 11.802C57.566 12.1947 57.9396 12.657 58.2056 13.189C58.4716 13.721 58.611 14.2973 58.6236 14.918C58.6363 15.032 58.5983 15.127 58.5096 15.203C58.4336 15.279 58.3386 15.317 58.2246 15.317H56.4196C56.2803 15.317 56.1663 15.2853 56.0776 15.222C55.989 15.146 55.9256 15.0257 55.8876 14.861C55.685 14.025 55.3366 13.455 54.8426 13.151C54.3486 12.847 53.7343 12.695 52.9996 12.695C52.151 12.695 51.4733 12.9357 50.9666 13.417C50.46 13.8857 50.1876 14.6647 50.1496 15.754C50.1116 16.7927 50.1116 17.8567 50.1496 18.946C50.1876 20.0353 50.46 20.8207 50.9666 21.302C51.4733 21.7707 52.151 22.005 52.9996 22.005C53.7343 22.005 54.3486 21.853 54.8426 21.549C55.3366 21.2323 55.685 20.6623 55.8876 19.839C55.9256 19.6617 55.989 19.5413 56.0776 19.478C56.1663 19.4147 56.2803 19.383 56.4196 19.383H58.2246C58.3386 19.383 58.4336 19.421 58.5096 19.497C58.5983 19.573 58.6363 19.668 58.6236 19.782C58.611 20.4027 58.4716 20.979 58.2056 21.511C57.9396 22.043 57.566 22.5117 57.0846 22.917C56.6033 23.3097 56.0206 23.62 55.3366 23.848C54.6526 24.076 53.88 24.19 53.0186 24.19ZM61.8079 24C61.6813 24 61.5736 23.9557 61.4849 23.867C61.3963 23.7783 61.3519 23.6707 61.3519 23.544V11.156C61.3519 11.0293 61.3963 10.9217 61.4849 10.833C61.5736 10.7443 61.6813 10.7 61.8079 10.7H63.5749C63.7016 10.7 63.8093 10.7443 63.8979 10.833C63.9866 10.9217 64.0309 11.0293 64.0309 11.156V21.739H70.0539C70.1933 21.739 70.3073 21.7833 70.3959 21.872C70.4846 21.9607 70.5289 22.0747 70.5289 22.214V23.544C70.5289 23.6707 70.4846 23.7783 70.3959 23.867C70.3073 23.9557 70.1933 24 70.0539 24H61.8079ZM73.3044 24C73.1777 24 73.0701 23.9557 72.9814 23.867C72.8927 23.7783 72.8484 23.6707 72.8484 23.544V11.156C72.8484 11.0293 72.8927 10.9217 72.9814 10.833C73.0701 10.7443 73.1777 10.7 73.3044 10.7H75.0904C75.2297 10.7 75.3374 10.7443 75.4134 10.833C75.5021 10.9217 75.5464 11.0293 75.5464 11.156V23.544C75.5464 23.6707 75.5021 23.7783 75.4134 23.867C75.3374 23.9557 75.2297 24 75.0904 24H73.3044ZM84.1311 24.19C82.9531 24.19 81.9525 23.9873 81.1291 23.582C80.3185 23.164 79.6978 22.575 79.2671 21.815C78.8365 21.0423 78.5958 20.1177 78.5451 19.041C78.5325 18.5217 78.5261 17.9643 78.5261 17.369C78.5261 16.7737 78.5325 16.2037 78.5451 15.659C78.5958 14.595 78.8365 13.6767 79.2671 12.904C79.7105 12.1313 80.3375 11.5423 81.1481 11.137C81.9715 10.719 82.9658 10.51 84.1311 10.51C84.9925 10.51 85.7651 10.624 86.4491 10.852C87.1331 11.08 87.7158 11.3967 88.1971 11.802C88.6785 12.1947 89.0521 12.657 89.3181 13.189C89.5841 13.721 89.7235 14.2973 89.7361 14.918C89.7488 15.032 89.7108 15.127 89.6221 15.203C89.5461 15.279 89.4511 15.317 89.3371 15.317H87.5321C87.3928 15.317 87.2788 15.2853 87.1901 15.222C87.1015 15.146 87.0381 15.0257 87.0001 14.861C86.7975 14.025 86.4491 13.455 85.9551 13.151C85.4611 12.847 84.8468 12.695 84.1121 12.695C83.2635 12.695 82.5858 12.9357 82.0791 13.417C81.5725 13.8857 81.3001 14.6647 81.2621 15.754C81.2241 16.7927 81.2241 17.8567 81.2621 18.946C81.3001 20.0353 81.5725 20.8207 82.0791 21.302C82.5858 21.7707 83.2635 22.005 84.1121 22.005C84.8468 22.005 85.4611 21.853 85.9551 21.549C86.4491 21.2323 86.7975 20.6623 87.0001 19.839C87.0381 19.6617 87.1015 19.5413 87.1901 19.478C87.2788 19.4147 87.3928 19.383 87.5321 19.383H89.3371C89.4511 19.383 89.5461 19.421 89.6221 19.497C89.7108 19.573 89.7488 19.668 89.7361 19.782C89.7235 20.4027 89.5841 20.979 89.3181 21.511C89.0521 22.043 88.6785 22.5117 88.1971 22.917C87.7158 23.3097 87.1331 23.62 86.4491 23.848C85.7651 24.076 84.9925 24.19 84.1311 24.19ZM92.9204 24C92.7938 24 92.6861 23.9557 92.5974 23.867C92.5088 23.7783 92.4644 23.6707 92.4644 23.544V11.175C92.4644 11.0357 92.5088 10.9217 92.5974 10.833C92.6861 10.7443 92.7938 10.7 92.9204 10.7H94.5924C94.7318 10.7 94.8458 10.7443 94.9344 10.833C95.0231 10.9217 95.0674 11.0357 95.0674 11.175V15.621L99.3614 11.042C99.4121 10.9787 99.4944 10.909 99.6084 10.833C99.7351 10.7443 99.8998 10.7 100.102 10.7H101.983C102.085 10.7 102.173 10.738 102.249 10.814C102.338 10.89 102.382 10.985 102.382 11.099C102.382 11.1877 102.357 11.2637 102.306 11.327L97.0814 17.065L102.667 23.354C102.731 23.43 102.762 23.5123 102.762 23.601C102.762 23.715 102.718 23.81 102.629 23.886C102.553 23.962 102.465 24 102.363 24H100.406C100.191 24 100.02 23.9557 99.8934 23.867C99.7794 23.7657 99.7034 23.696 99.6654 23.658L95.0674 18.623V23.544C95.0674 23.6707 95.0231 23.7783 94.9344 23.867C94.8458 23.9557 94.7318 24 94.5924 24H92.9204Z" fill="white" fill-opacity="0.7"/>
<path d="M108.82 24C108.618 24 108.459 23.9493 108.345 23.848C108.231 23.7467 108.149 23.62 108.098 23.468L104.032 11.27C104.007 11.2067 103.994 11.1497 103.994 11.099C103.994 10.985 104.032 10.89 104.108 10.814C104.184 10.738 104.279 10.7 104.393 10.7H106.065C106.243 10.7 106.376 10.7507 106.464 10.852C106.566 10.9407 106.629 11.0293 106.654 11.118L109.865 20.903L113.057 11.118C113.095 11.0293 113.159 10.9407 113.247 10.852C113.349 10.7507 113.488 10.7 113.665 10.7H115.337C115.439 10.7 115.527 10.738 115.603 10.814C115.692 10.89 115.736 10.985 115.736 11.099C115.736 11.1497 115.724 11.2067 115.698 11.27L111.632 23.468C111.582 23.62 111.499 23.7467 111.385 23.848C111.271 23.9493 111.113 24 110.91 24H108.82ZM122.943 24.19C121.816 24.19 120.847 24.0063 120.036 23.639C119.226 23.259 118.592 22.6827 118.136 21.91C117.68 21.1247 117.433 20.1493 117.395 18.984C117.383 18.4393 117.376 17.901 117.376 17.369C117.376 16.837 117.383 16.2923 117.395 15.735C117.433 14.5823 117.687 13.6197 118.155 12.847C118.624 12.0743 119.264 11.4917 120.074 11.099C120.898 10.7063 121.854 10.51 122.943 10.51C124.033 10.51 124.989 10.7063 125.812 11.099C126.636 11.4917 127.282 12.0743 127.75 12.847C128.219 13.6197 128.472 14.5823 128.51 15.735C128.536 16.2923 128.548 16.837 128.548 17.369C128.548 17.901 128.536 18.4393 128.51 18.984C128.472 20.1493 128.225 21.1247 127.769 21.91C127.313 22.6827 126.674 23.259 125.85 23.639C125.04 24.0063 124.071 24.19 122.943 24.19ZM122.943 22.005C123.767 22.005 124.438 21.7643 124.957 21.283C125.477 20.789 125.755 19.991 125.793 18.889C125.819 18.3317 125.831 17.8187 125.831 17.35C125.831 16.8687 125.819 16.3557 125.793 15.811C125.768 15.0763 125.629 14.481 125.375 14.025C125.135 13.5563 124.805 13.2207 124.387 13.018C123.969 12.8027 123.488 12.695 122.943 12.695C122.411 12.695 121.936 12.8027 121.518 13.018C121.1 13.2207 120.765 13.5563 120.511 14.025C120.271 14.481 120.138 15.0763 120.112 15.811C120.1 16.3557 120.093 16.8687 120.093 17.35C120.093 17.8187 120.1 18.3317 120.112 18.889C120.15 19.991 120.429 20.789 120.948 21.283C121.468 21.7643 122.133 22.005 122.943 22.005ZM134.659 24C134.532 24 134.425 23.9557 134.336 23.867C134.247 23.7783 134.203 23.6707 134.203 23.544V13.037H130.688C130.561 13.037 130.454 12.9927 130.365 12.904C130.276 12.8153 130.232 12.7077 130.232 12.581V11.175C130.232 11.0357 130.276 10.9217 130.365 10.833C130.454 10.7443 130.561 10.7 130.688 10.7H140.378C140.517 10.7 140.631 10.7443 140.72 10.833C140.809 10.9217 140.853 11.0357 140.853 11.175V12.581C140.853 12.7077 140.809 12.8153 140.72 12.904C140.631 12.9927 140.517 13.037 140.378 13.037H136.882V23.544C136.882 23.6707 136.838 23.7783 136.749 23.867C136.66 23.9557 136.546 24 136.407 24H134.659ZM143.712 24C143.585 24 143.478 23.9557 143.389 23.867C143.3 23.7783 143.256 23.6707 143.256 23.544V11.175C143.256 11.0357 143.3 10.9217 143.389 10.833C143.478 10.7443 143.585 10.7 143.712 10.7H152.072C152.211 10.7 152.325 10.7443 152.414 10.833C152.503 10.9217 152.547 11.0357 152.547 11.175V12.429C152.547 12.5557 152.503 12.6633 152.414 12.752C152.325 12.8407 152.211 12.885 152.072 12.885H145.821V16.248H151.654C151.793 16.248 151.907 16.2923 151.996 16.381C152.085 16.457 152.129 16.5647 152.129 16.704V17.882C152.129 18.0213 152.085 18.1353 151.996 18.224C151.907 18.3 151.793 18.338 151.654 18.338H145.821V21.815H152.224C152.363 21.815 152.477 21.8593 152.566 21.948C152.655 22.0367 152.699 22.1507 152.699 22.29V23.544C152.699 23.6707 152.655 23.7783 152.566 23.867C152.477 23.9557 152.363 24 152.224 24H143.712Z" fill="white"/>
<defs>
<linearGradient id="paint0_linear_89_317" x1="17.0005" y1="0.000915527" x2="17.0005" y2="34.002" gradientUnits="userSpaceOnUse">
<stop offset="0.223958" stop-color="#C67BFF"/>
<stop offset="1" stop-color="#8000E1"/>
</linearGradient>
<clipPath id="clip0_89_317">
<rect width="34" height="34" fill="white"/>
</clipPath>
</defs>
</svg>
