<svg width="390" height="80" viewBox="0 0 390 80" fill="none" xmlns="http://www.w3.org/2000/svg">
<g clip-path="url(#clip0_903_100)">
<path d="M378 0.5H12C5.64873 0.5 0.5 5.64873 0.5 12V68C0.5 74.3513 5.64873 79.5 12 79.5H378C384.351 79.5 389.5 74.3513 389.5 68V12C389.5 5.64873 384.351 0.5 378 0.5Z" fill="black"/>
<path d="M378 0.5H12C5.64873 0.5 0.5 5.64873 0.5 12V68C0.5 74.3513 5.64873 79.5 12 79.5H378C384.351 79.5 389.5 74.3513 389.5 68V12C389.5 5.64873 384.351 0.5 378 0.5Z" stroke="white"/>
<g clip-path="url(#clip1_903_100)">
<path d="M55.0414 43.0335C56.506 41.5381 57.9707 40.0397 59.4353 38.5443C59.6488 38.3253 59.8622 38.1091 60.0756 37.8901C60.6252 37.3293 60.8503 36.5203 60.6398 35.758C60.4293 34.9956 59.8446 34.4787 59.1079 34.2275C53.644 32.3728 48.0426 31.0001 42.4822 29.4842C40.5585 28.9585 38.6378 28.4182 36.7259 27.8574C35.0946 27.3784 33.6182 28.9643 34.0275 30.5532C34.7145 33.2082 35.4045 35.8631 36.0915 38.521C37.179 42.7181 38.2665 46.9181 39.3541 51.1152C39.6026 52.0732 39.8511 53.0341 40.0995 53.9921C40.5118 55.5868 42.6166 56.1213 43.7656 54.9588C45.5781 53.1217 47.3263 51.2261 49.1155 49.3656H46.0137C46.765 50.1688 47.5193 50.9691 48.2706 51.7723C48.5834 52.1053 48.8963 52.4353 49.2061 52.7683C49.2734 52.8413 49.3435 52.9173 49.4079 52.9932C49.4868 53.0867 49.5628 53.183 49.6417 53.2736C49.1535 52.6953 49.4605 53.0399 49.5657 53.1918C49.8259 53.5715 50.0481 53.9775 50.2294 54.401L50.0072 53.8782C50.2293 54.4127 50.3814 54.9676 50.4661 55.543L50.3872 54.9618C50.4691 55.5751 50.4691 56.1885 50.3901 56.8018L50.4691 56.2206C50.3814 56.8544 50.2118 57.4648 49.9633 58.0548L50.1855 57.532C50.0159 57.9205 49.8171 58.2943 49.5833 58.6506C49.5248 58.7383 49.4634 58.8259 49.402 58.9106C49.1155 59.3049 49.7236 58.5192 49.5014 58.7821C49.3728 58.934 49.2412 59.0858 49.1009 59.2289C48.9606 59.3721 48.8144 59.5093 48.6624 59.6408C48.5191 59.7634 48.1566 60.0059 48.7939 59.5502C48.7062 59.6116 48.6214 59.6787 48.5308 59.7401C48.1683 59.9883 47.7853 60.1957 47.3819 60.371L47.9052 60.149C47.3497 60.3826 46.7709 60.5404 46.1745 60.6251L46.7563 60.5462C45.4963 60.7098 44.1807 60.5754 42.9295 60.4089L43.5112 60.4878C41.5408 60.2162 39.6143 59.6904 37.7812 58.9252L38.3045 59.1472C37.2404 58.6974 36.2113 58.1716 35.2291 57.57C34.7467 57.275 34.276 56.9625 33.817 56.6295C33.7118 56.5536 33.6095 56.4776 33.5042 56.4017C33.4399 56.355 33.3756 56.3053 33.3113 56.2556C33.1066 56.1038 33.7235 56.5798 33.5247 56.4221C33.2966 56.241 33.0715 56.06 32.8494 55.873C31.9752 55.1341 31.1567 54.3338 30.4024 53.4751C30.2329 53.2823 30.0662 53.0837 29.9025 52.8851C29.809 52.7741 29.7213 52.6602 29.6306 52.5463C29.5722 52.4733 29.4231 52.2805 29.654 52.5784C29.9084 52.9085 29.6745 52.6018 29.6189 52.5317C29.2798 52.079 28.9582 51.6146 28.6513 51.1414C27.9496 50.0491 27.3445 48.8954 26.8387 47.7008L27.0609 48.2236C26.292 46.3923 25.7658 44.4705 25.491 42.5048L25.5699 43.0861C25.2951 41.0328 25.2951 38.9532 25.5699 36.9029L25.491 37.4841C25.7658 35.5039 26.295 33.5703 27.0697 31.7244L26.8475 32.2472C27.2919 31.1987 27.8122 30.1823 28.4086 29.2126C28.701 28.7365 29.0108 28.2721 29.3354 27.8194C29.4201 27.7026 29.5049 27.5887 29.5897 27.4718C29.6277 27.4222 29.6803 27.3112 29.7329 27.282C29.7388 27.2791 29.3646 27.7522 29.5663 27.4981C29.7446 27.2732 29.923 27.0513 30.1101 26.8322C30.838 25.9706 31.6303 25.1645 32.4781 24.4197C32.6798 24.2415 32.8874 24.0663 33.0979 23.8939C33.1972 23.8122 33.2966 23.7333 33.396 23.6544C33.4457 23.6136 33.4954 23.5756 33.5451 23.5376C32.9868 23.9845 33.2703 23.7479 33.4048 23.6486C33.8638 23.304 34.3345 22.9768 34.8198 22.6672C35.9015 21.975 37.0416 21.3792 38.2227 20.8768L37.6994 21.0988C39.5441 20.3248 41.4794 19.7962 43.4615 19.5216L42.8798 19.6005C44.935 19.3259 47.0165 19.323 49.0717 19.5975L48.4899 19.5187C50.4603 19.7903 52.3839 20.319 54.2199 21.0871L53.6966 20.8651C54.7607 21.3149 55.7898 21.8436 56.7721 22.4453C57.2544 22.7403 57.7251 23.0557 58.187 23.3857C58.2923 23.4617 58.3975 23.5376 58.4998 23.6136C58.5641 23.6632 58.6285 23.7129 58.6928 23.7596C58.8974 23.9115 58.2806 23.4354 58.4794 23.596C58.7074 23.7771 58.9325 23.9582 59.1547 24.1451C60.0288 24.8841 60.8474 25.6873 61.6045 26.5489C61.7741 26.7417 61.9407 26.9403 62.1045 27.1389C62.198 27.2499 62.2857 27.3638 62.3763 27.4777C62.4348 27.5507 62.5839 27.7435 62.353 27.4456C62.0986 27.1155 62.3325 27.4222 62.388 27.4923C62.7272 27.945 63.0487 28.4094 63.3557 28.8884C64.0573 29.9837 64.6625 31.1403 65.1683 32.3378L64.9461 31.815C65.7149 33.6521 66.2382 35.5798 66.5072 37.5513L66.4283 36.9701C66.6972 39.0058 66.6914 41.0678 66.4195 43.1036L66.4984 42.5224C66.2207 44.5172 65.6857 46.4654 64.9022 48.32L65.1244 47.7972C64.8496 48.4398 64.5456 49.0706 64.2152 49.6869C63.6744 50.6975 63.9287 52.117 65.0016 52.6836C66.019 53.221 67.4252 52.9757 68.0011 51.8979C70.9567 46.3748 71.787 39.8557 70.2258 33.7806C68.9688 28.8884 66.1418 24.3496 62.2886 21.0784C58.2309 17.629 53.2756 15.5465 47.9637 15.0879C42.8505 14.6469 37.5766 15.897 33.1797 18.5286C28.7828 21.1601 25.4004 24.9074 23.3364 29.4112C21.0824 34.3297 20.4305 39.7856 21.5092 45.0955C22.5149 50.052 25.1665 54.7047 28.853 58.1629C32.5395 61.621 37.3106 64.0131 42.3535 64.7112C43.6954 64.8952 45.0957 65.0879 46.4522 64.9623C47.8087 64.8368 49.136 64.4804 50.3375 63.7824C52.4278 62.5644 54.0065 60.4411 54.5736 58.0899C55.1408 55.7387 54.7636 52.9698 53.3078 50.9136C52.3839 49.6051 51.1882 48.4777 50.0949 47.3124L49.1184 46.2726C48.3203 45.4227 46.8177 45.4373 46.0166 46.2726C44.2304 48.1331 42.4792 50.0286 40.6667 51.8658C41.8887 52.1871 43.1107 52.5113 44.3327 52.8325C43.6457 50.1776 42.9558 47.5227 42.2688 44.8648C41.1812 40.6677 40.0937 36.4677 39.0062 32.2706C38.7577 31.3126 38.5092 30.3517 38.2607 29.3937L35.5623 32.0895C41.4619 33.8215 47.4462 35.2468 53.3399 36.9963C54.8835 37.4549 56.4183 37.9427 57.9444 38.4596L56.9767 34.797C55.512 36.2924 54.0474 37.7908 52.5827 39.2862C52.3693 39.5053 52.1559 39.7214 51.9425 39.9404C51.1385 40.7612 51.0625 42.2332 51.9425 43.0393C52.8225 43.8455 54.1877 43.9156 55.0443 43.0393L55.0414 43.0335Z" fill="url(#paint0_linear_903_100)"/>
</g>
<path d="M89.576 48C89.416 48 89.28 47.944 89.168 47.832C89.056 47.72 89 47.584 89 47.424V34.152H84.56C84.4 34.152 84.264 34.096 84.152 33.984C84.04 33.872 83.984 33.736 83.984 33.576V31.8C83.984 31.624 84.04 31.48 84.152 31.368C84.264 31.256 84.4 31.2 84.56 31.2H96.8C96.976 31.2 97.12 31.256 97.232 31.368C97.344 31.48 97.4 31.624 97.4 31.8V33.576C97.4 33.736 97.344 33.872 97.232 33.984C97.12 34.096 96.976 34.152 96.8 34.152H92.384V47.424C92.384 47.584 92.328 47.72 92.216 47.832C92.104 47.944 91.96 48 91.784 48H89.576ZM101.011 48C100.851 48 100.715 47.944 100.603 47.832C100.491 47.72 100.435 47.584 100.435 47.424V31.8C100.435 31.624 100.491 31.48 100.603 31.368C100.715 31.256 100.851 31.2 101.011 31.2H107.227C109.163 31.2 110.691 31.648 111.811 32.544C112.931 33.44 113.491 34.744 113.491 36.456C113.491 37.64 113.195 38.624 112.603 39.408C112.027 40.192 111.251 40.76 110.275 41.112L113.779 47.232C113.827 47.328 113.851 47.416 113.851 47.496C113.851 47.64 113.795 47.76 113.683 47.856C113.587 47.952 113.475 48 113.347 48H111.163C110.891 48 110.683 47.928 110.539 47.784C110.395 47.64 110.283 47.496 110.203 47.352L107.107 41.664H103.771V47.424C103.771 47.584 103.715 47.72 103.603 47.832C103.507 47.944 103.371 48 103.195 48H101.011ZM103.771 38.952H107.155C108.131 38.952 108.859 38.736 109.339 38.304C109.819 37.856 110.059 37.232 110.059 36.432C110.059 35.632 109.819 35.008 109.339 34.56C108.875 34.096 108.147 33.864 107.155 33.864H103.771V38.952ZM121.543 48C121.383 48 121.247 47.944 121.135 47.832C121.023 47.72 120.967 47.584 120.967 47.424V42L115.303 31.968C115.287 31.936 115.271 31.896 115.255 31.848C115.239 31.8 115.231 31.752 115.231 31.704C115.231 31.56 115.279 31.44 115.375 31.344C115.471 31.248 115.583 31.2 115.711 31.2H117.847C118.039 31.2 118.191 31.248 118.303 31.344C118.431 31.44 118.519 31.544 118.567 31.656L122.647 38.64L126.703 31.656C126.767 31.544 126.855 31.44 126.967 31.344C127.095 31.248 127.255 31.2 127.447 31.2H129.559C129.703 31.2 129.823 31.248 129.919 31.344C130.015 31.44 130.063 31.56 130.063 31.704C130.063 31.752 130.055 31.8 130.039 31.848C130.039 31.896 130.023 31.936 129.991 31.968L124.327 42V47.424C124.327 47.584 124.271 47.72 124.159 47.832C124.047 47.944 123.903 48 123.727 48H121.543ZM145.653 48.24C144.165 48.24 142.901 47.984 141.861 47.472C140.837 46.944 140.053 46.2 139.509 45.24C138.965 44.264 138.661 43.096 138.597 41.736C138.581 41.08 138.573 40.376 138.573 39.624C138.573 38.872 138.581 38.152 138.597 37.464C138.661 36.12 138.965 34.96 139.509 33.984C140.069 33.008 140.861 32.264 141.885 31.752C142.925 31.224 144.181 30.96 145.653 30.96C146.741 30.96 147.717 31.104 148.581 31.392C149.445 31.68 150.181 32.08 150.789 32.592C151.397 33.088 151.869 33.672 152.205 34.344C152.541 35.016 152.717 35.744 152.733 36.528C152.749 36.672 152.701 36.792 152.589 36.888C152.493 36.984 152.373 37.032 152.229 37.032H149.949C149.773 37.032 149.629 36.992 149.517 36.912C149.405 36.816 149.325 36.664 149.277 36.456C149.021 35.4 148.581 34.68 147.957 34.296C147.333 33.912 146.557 33.72 145.629 33.72C144.557 33.72 143.701 34.024 143.061 34.632C142.421 35.224 142.077 36.208 142.029 37.584C141.981 38.896 141.981 40.24 142.029 41.616C142.077 42.992 142.421 43.984 143.061 44.592C143.701 45.184 144.557 45.48 145.629 45.48C146.557 45.48 147.333 45.288 147.957 44.904C148.581 44.504 149.021 43.784 149.277 42.744C149.325 42.52 149.405 42.368 149.517 42.288C149.629 42.208 149.773 42.168 149.949 42.168H152.229C152.373 42.168 152.493 42.216 152.589 42.312C152.701 42.408 152.749 42.528 152.733 42.672C152.717 43.456 152.541 44.184 152.205 44.856C151.869 45.528 151.397 46.12 150.789 46.632C150.181 47.128 149.445 47.52 148.581 47.808C147.717 48.096 146.741 48.24 145.653 48.24ZM156.755 48C156.595 48 156.459 47.944 156.347 47.832C156.235 47.72 156.179 47.584 156.179 47.424V31.776C156.179 31.616 156.235 31.48 156.347 31.368C156.459 31.256 156.595 31.2 156.755 31.2H158.987C159.147 31.2 159.283 31.256 159.395 31.368C159.507 31.48 159.563 31.616 159.563 31.776V45.144H167.171C167.347 45.144 167.491 45.2 167.603 45.312C167.715 45.424 167.771 45.568 167.771 45.744V47.424C167.771 47.584 167.715 47.72 167.603 47.832C167.491 47.944 167.347 48 167.171 48H156.755ZM171.277 48C171.117 48 170.981 47.944 170.869 47.832C170.757 47.72 170.701 47.584 170.701 47.424V31.776C170.701 31.616 170.757 31.48 170.869 31.368C170.981 31.256 171.117 31.2 171.277 31.2H173.533C173.709 31.2 173.845 31.256 173.941 31.368C174.053 31.48 174.109 31.616 174.109 31.776V47.424C174.109 47.584 174.053 47.72 173.941 47.832C173.845 47.944 173.709 48 173.533 48H171.277ZM184.953 48.24C183.465 48.24 182.201 47.984 181.161 47.472C180.137 46.944 179.353 46.2 178.809 45.24C178.265 44.264 177.961 43.096 177.897 41.736C177.881 41.08 177.873 40.376 177.873 39.624C177.873 38.872 177.881 38.152 177.897 37.464C177.961 36.12 178.265 34.96 178.809 33.984C179.369 33.008 180.161 32.264 181.185 31.752C182.225 31.224 183.481 30.96 184.953 30.96C186.041 30.96 187.017 31.104 187.881 31.392C188.745 31.68 189.481 32.08 190.089 32.592C190.697 33.088 191.169 33.672 191.505 34.344C191.841 35.016 192.017 35.744 192.033 36.528C192.049 36.672 192.001 36.792 191.889 36.888C191.793 36.984 191.673 37.032 191.529 37.032H189.249C189.073 37.032 188.929 36.992 188.817 36.912C188.705 36.816 188.625 36.664 188.577 36.456C188.321 35.4 187.881 34.68 187.257 34.296C186.633 33.912 185.857 33.72 184.929 33.72C183.857 33.72 183.001 34.024 182.361 34.632C181.721 35.224 181.377 36.208 181.329 37.584C181.281 38.896 181.281 40.24 181.329 41.616C181.377 42.992 181.721 43.984 182.361 44.592C183.001 45.184 183.857 45.48 184.929 45.48C185.857 45.48 186.633 45.288 187.257 44.904C187.881 44.504 188.321 43.784 188.577 42.744C188.625 42.52 188.705 42.368 188.817 42.288C188.929 42.208 189.073 42.168 189.249 42.168H191.529C191.673 42.168 191.793 42.216 191.889 42.312C192.001 42.408 192.049 42.528 192.033 42.672C192.017 43.456 191.841 44.184 191.505 44.856C191.169 45.528 190.697 46.12 190.089 46.632C189.481 47.128 188.745 47.52 187.881 47.808C187.017 48.096 186.041 48.24 184.953 48.24ZM196.055 48C195.895 48 195.759 47.944 195.647 47.832C195.535 47.72 195.479 47.584 195.479 47.424V31.8C195.479 31.624 195.535 31.48 195.647 31.368C195.759 31.256 195.895 31.2 196.055 31.2H198.167C198.343 31.2 198.487 31.256 198.599 31.368C198.711 31.48 198.767 31.624 198.767 31.8V37.416L204.191 31.632C204.255 31.552 204.359 31.464 204.503 31.368C204.663 31.256 204.871 31.2 205.127 31.2H207.503C207.631 31.2 207.743 31.248 207.839 31.344C207.951 31.44 208.007 31.56 208.007 31.704C208.007 31.816 207.975 31.912 207.911 31.992L201.311 39.24L208.367 47.184C208.447 47.28 208.487 47.384 208.487 47.496C208.487 47.64 208.431 47.76 208.319 47.856C208.223 47.952 208.111 48 207.983 48H205.511C205.239 48 205.023 47.944 204.863 47.832C204.719 47.704 204.623 47.616 204.575 47.568L198.767 41.208V47.424C198.767 47.584 198.711 47.72 198.599 47.832C198.487 47.944 198.343 48 198.167 48H196.055ZM216.139 48C215.883 48 215.683 47.936 215.539 47.808C215.395 47.68 215.291 47.52 215.227 47.328L210.091 31.92C210.059 31.84 210.043 31.768 210.043 31.704C210.043 31.56 210.091 31.44 210.187 31.344C210.283 31.248 210.403 31.2 210.547 31.2H212.659C212.883 31.2 213.051 31.264 213.163 31.392C213.291 31.504 213.371 31.616 213.403 31.728L217.459 44.088L221.491 31.728C221.539 31.616 221.619 31.504 221.731 31.392C221.859 31.264 222.035 31.2 222.259 31.2H224.371C224.499 31.2 224.611 31.248 224.707 31.344C224.819 31.44 224.875 31.56 224.875 31.704C224.875 31.768 224.859 31.84 224.827 31.92L219.691 47.328C219.627 47.52 219.523 47.68 219.379 47.808C219.235 47.936 219.035 48 218.779 48H216.139ZM233.979 48.24C232.555 48.24 231.331 48.008 230.307 47.544C229.283 47.064 228.483 46.336 227.907 45.36C227.331 44.368 227.019 43.136 226.971 41.664C226.955 40.976 226.947 40.296 226.947 39.624C226.947 38.952 226.955 38.264 226.971 37.56C227.019 36.104 227.339 34.888 227.931 33.912C228.523 32.936 229.331 32.2 230.355 31.704C231.395 31.208 232.603 30.96 233.979 30.96C235.355 30.96 236.563 31.208 237.603 31.704C238.643 32.2 239.459 32.936 240.051 33.912C240.643 34.888 240.963 36.104 241.011 37.56C241.043 38.264 241.059 38.952 241.059 39.624C241.059 40.296 241.043 40.976 241.011 41.664C240.963 43.136 240.651 44.368 240.075 45.36C239.499 46.336 238.691 47.064 237.651 47.544C236.627 48.008 235.403 48.24 233.979 48.24ZM233.979 45.48C235.019 45.48 235.867 45.176 236.523 44.568C237.179 43.944 237.531 42.936 237.579 41.544C237.611 40.84 237.627 40.192 237.627 39.6C237.627 38.992 237.611 38.344 237.579 37.656C237.547 36.728 237.371 35.976 237.051 35.4C236.747 34.808 236.331 34.384 235.803 34.128C235.275 33.856 234.667 33.72 233.979 33.72C233.307 33.72 232.707 33.856 232.179 34.128C231.651 34.384 231.227 34.808 230.907 35.4C230.603 35.976 230.435 36.728 230.403 37.656C230.387 38.344 230.379 38.992 230.379 39.6C230.379 40.192 230.387 40.84 230.403 41.544C230.451 42.936 230.803 43.944 231.459 44.568C232.115 45.176 232.955 45.48 233.979 45.48ZM248.778 48C248.618 48 248.482 47.944 248.37 47.832C248.258 47.72 248.202 47.584 248.202 47.424V34.152H243.762C243.602 34.152 243.466 34.096 243.354 33.984C243.242 33.872 243.186 33.736 243.186 33.576V31.8C243.186 31.624 243.242 31.48 243.354 31.368C243.466 31.256 243.602 31.2 243.762 31.2H256.002C256.178 31.2 256.322 31.256 256.434 31.368C256.546 31.48 256.602 31.624 256.602 31.8V33.576C256.602 33.736 256.546 33.872 256.434 33.984C256.322 34.096 256.178 34.152 256.002 34.152H251.586V47.424C251.586 47.584 251.53 47.72 251.418 47.832C251.306 47.944 251.162 48 250.986 48H248.778ZM260.213 48C260.053 48 259.917 47.944 259.805 47.832C259.693 47.72 259.637 47.584 259.637 47.424V31.8C259.637 31.624 259.693 31.48 259.805 31.368C259.917 31.256 260.053 31.2 260.213 31.2H270.773C270.949 31.2 271.093 31.256 271.205 31.368C271.317 31.48 271.373 31.624 271.373 31.8V33.384C271.373 33.544 271.317 33.68 271.205 33.792C271.093 33.904 270.949 33.96 270.773 33.96H262.877V38.208H270.245C270.421 38.208 270.565 38.264 270.677 38.376C270.789 38.472 270.845 38.608 270.845 38.784V40.272C270.845 40.448 270.789 40.592 270.677 40.704C270.565 40.8 270.421 40.848 270.245 40.848H262.877V45.24H270.965C271.141 45.24 271.285 45.296 271.397 45.408C271.509 45.52 271.565 45.664 271.565 45.84V47.424C271.565 47.584 271.509 47.72 271.397 47.832C271.285 47.944 271.141 48 270.965 48H260.213ZM287.731 48.24C286.243 48.24 284.979 47.984 283.939 47.472C282.915 46.944 282.131 46.2 281.587 45.24C281.043 44.264 280.739 43.096 280.675 41.736C280.659 41.08 280.651 40.376 280.651 39.624C280.651 38.872 280.659 38.152 280.675 37.464C280.739 36.12 281.043 34.96 281.587 33.984C282.147 33.008 282.939 32.264 283.963 31.752C285.003 31.224 286.259 30.96 287.731 30.96C288.819 30.96 289.795 31.104 290.659 31.392C291.523 31.68 292.259 32.08 292.867 32.592C293.475 33.088 293.947 33.672 294.283 34.344C294.619 35.016 294.795 35.744 294.811 36.528C294.827 36.672 294.779 36.792 294.667 36.888C294.571 36.984 294.451 37.032 294.307 37.032H292.027C291.851 37.032 291.707 36.992 291.595 36.912C291.483 36.816 291.403 36.664 291.355 36.456C291.099 35.4 290.659 34.68 290.035 34.296C289.411 33.912 288.635 33.72 287.707 33.72C286.635 33.72 285.779 34.024 285.139 34.632C284.499 35.224 284.155 36.208 284.107 37.584C284.059 38.896 284.059 40.24 284.107 41.616C284.155 42.992 284.499 43.984 285.139 44.592C285.779 45.184 286.635 45.48 287.707 45.48C288.635 45.48 289.411 45.288 290.035 44.904C290.659 44.504 291.099 43.784 291.355 42.744C291.403 42.52 291.483 42.368 291.595 42.288C291.707 42.208 291.851 42.168 292.027 42.168H294.307C294.451 42.168 294.571 42.216 294.667 42.312C294.779 42.408 294.827 42.528 294.811 42.672C294.795 43.456 294.619 44.184 294.283 44.856C293.947 45.528 293.475 46.12 292.867 46.632C292.259 47.128 291.523 47.52 290.659 47.808C289.795 48.096 288.819 48.24 287.731 48.24ZM298.833 48C298.673 48 298.537 47.944 298.425 47.832C298.313 47.72 298.257 47.584 298.257 47.424V31.776C298.257 31.616 298.313 31.48 298.425 31.368C298.537 31.256 298.673 31.2 298.833 31.2H301.065C301.225 31.2 301.361 31.256 301.473 31.368C301.585 31.48 301.641 31.616 301.641 31.776V45.144H309.249C309.425 45.144 309.569 45.2 309.681 45.312C309.793 45.424 309.849 45.568 309.849 45.744V47.424C309.849 47.584 309.793 47.72 309.681 47.832C309.569 47.944 309.425 48 309.249 48H298.833ZM319.024 48.24C317.6 48.24 316.376 48.008 315.352 47.544C314.328 47.064 313.528 46.336 312.952 45.36C312.376 44.368 312.064 43.136 312.016 41.664C312 40.976 311.992 40.296 311.992 39.624C311.992 38.952 312 38.264 312.016 37.56C312.064 36.104 312.384 34.888 312.976 33.912C313.568 32.936 314.376 32.2 315.4 31.704C316.44 31.208 317.648 30.96 319.024 30.96C320.4 30.96 321.608 31.208 322.648 31.704C323.688 32.2 324.504 32.936 325.096 33.912C325.688 34.888 326.008 36.104 326.056 37.56C326.088 38.264 326.104 38.952 326.104 39.624C326.104 40.296 326.088 40.976 326.056 41.664C326.008 43.136 325.696 44.368 325.12 45.36C324.544 46.336 323.736 47.064 322.696 47.544C321.672 48.008 320.448 48.24 319.024 48.24ZM319.024 45.48C320.064 45.48 320.912 45.176 321.568 44.568C322.224 43.944 322.576 42.936 322.624 41.544C322.656 40.84 322.672 40.192 322.672 39.6C322.672 38.992 322.656 38.344 322.624 37.656C322.592 36.728 322.416 35.976 322.096 35.4C321.792 34.808 321.376 34.384 320.848 34.128C320.32 33.856 319.712 33.72 319.024 33.72C318.352 33.72 317.752 33.856 317.224 34.128C316.696 34.384 316.272 34.808 315.952 35.4C315.648 35.976 315.48 36.728 315.448 37.656C315.432 38.344 315.424 38.992 315.424 39.6C315.424 40.192 315.432 40.84 315.448 41.544C315.496 42.936 315.848 43.944 316.504 44.568C317.16 45.176 318 45.48 319.024 45.48ZM336.552 48.24C335.16 48.24 333.952 48.008 332.928 47.544C331.904 47.064 331.112 46.336 330.552 45.36C329.992 44.368 329.712 43.104 329.712 41.568V31.8C329.712 31.624 329.768 31.48 329.88 31.368C329.992 31.256 330.128 31.2 330.288 31.2H332.472C332.648 31.2 332.784 31.256 332.88 31.368C332.992 31.48 333.048 31.624 333.048 31.8V41.568C333.048 42.88 333.36 43.856 333.984 44.496C334.608 45.12 335.464 45.432 336.552 45.432C337.64 45.432 338.488 45.12 339.096 44.496C339.72 43.856 340.032 42.88 340.032 41.568V31.8C340.032 31.624 340.088 31.48 340.2 31.368C340.312 31.256 340.456 31.2 340.632 31.2H342.792C342.968 31.2 343.104 31.256 343.2 31.368C343.312 31.48 343.368 31.624 343.368 31.8V41.568C343.368 43.104 343.088 44.368 342.528 45.36C341.984 46.336 341.2 47.064 340.176 47.544C339.168 48.008 337.96 48.24 336.552 48.24ZM348.141 48C347.981 48 347.845 47.944 347.733 47.832C347.621 47.72 347.565 47.584 347.565 47.424V31.8C347.565 31.624 347.621 31.48 347.733 31.368C347.845 31.256 347.981 31.2 348.141 31.2H353.997C355.613 31.2 356.941 31.448 357.981 31.944C359.037 32.44 359.829 33.176 360.357 34.152C360.901 35.128 361.181 36.32 361.197 37.728C361.229 38.432 361.245 39.056 361.245 39.6C361.245 40.144 361.229 40.76 361.197 41.448C361.165 42.936 360.893 44.168 360.381 45.144C359.869 46.104 359.093 46.824 358.053 47.304C357.029 47.768 355.717 48 354.117 48H348.141ZM350.901 45.24H353.997C354.893 45.24 355.621 45.112 356.181 44.856C356.741 44.6 357.149 44.192 357.405 43.632C357.677 43.056 357.821 42.304 357.837 41.376C357.853 40.896 357.861 40.48 357.861 40.128C357.877 39.76 357.877 39.4 357.861 39.048C357.861 38.68 357.853 38.264 357.837 37.8C357.805 36.488 357.477 35.52 356.853 34.896C356.229 34.272 355.237 33.96 353.877 33.96H350.901V45.24Z" fill="white"/>
</g>
<defs>
<linearGradient id="paint0_linear_903_100" x1="46.0003" y1="15.001" x2="46.0003" y2="65.0025" gradientUnits="userSpaceOnUse">
<stop offset="0.223958" stop-color="#C67BFF"/>
<stop offset="1" stop-color="#8000E1"/>
</linearGradient>
<clipPath id="clip0_903_100">
<rect width="390" height="80" fill="white"/>
</clipPath>
<clipPath id="clip1_903_100">
<rect width="50" height="50" fill="white" transform="translate(21 15)"/>
</clipPath>
</defs>
</svg>
